<svg width="559" height="547" viewBox="0 0 559 547" fill="none" xmlns="http://www.w3.org/2000/svg">
<path d="M129.592 414.662L172.876 345.761L75.9399 283.366L25.8796 363.054L106.058 414.662H129.592Z" fill="#F0F0F0"/>
<path fill-rule="evenodd" clip-rule="evenodd" d="M82.8148 434.461H189.439V413.62H82.8148V434.461ZM188.054 433.116H84.1995V414.965H188.054V433.116Z" fill="#3F3D56"/>
<path d="M177.534 431.335C181.25 431.335 184.263 428.302 184.263 424.561C184.263 420.821 181.25 417.788 177.534 417.788C173.818 417.788 170.806 420.821 170.806 424.561C170.806 428.302 173.818 431.335 177.534 431.335Z" fill="#222F65"/>
<path d="M156.831 431.335C160.547 431.335 163.559 428.302 163.559 424.561C163.559 420.821 160.547 417.788 156.831 417.788C153.114 417.788 150.102 420.821 150.102 424.561C150.102 428.302 153.114 431.335 156.831 431.335Z" fill="#222F65"/>
<path d="M138.197 431.335C141.913 431.335 144.926 428.302 144.926 424.561C144.926 420.821 141.913 417.788 138.197 417.788C134.481 417.788 131.469 420.821 131.469 424.561C131.469 428.302 134.481 431.335 138.197 431.335Z" fill="#222F65"/>
<path d="M118.529 431.335C122.245 431.335 125.257 428.302 125.257 424.561C125.257 420.821 122.245 417.788 118.529 417.788C114.813 417.788 111.8 420.821 111.8 424.561C111.8 428.302 114.813 431.335 118.529 431.335Z" fill="#222F65"/>
<path d="M98.8602 431.335C102.576 431.335 105.589 428.302 105.589 424.561C105.589 420.821 102.576 417.788 98.8602 417.788C95.144 417.788 92.1315 420.821 92.1315 424.561C92.1315 428.302 95.144 431.335 98.8602 431.335Z" fill="#222F65"/>
<path d="M318.28 193.69V140.468H344.717V114.557H215.318V244.811H325.933V232.076C325.933 227.282 327.825 222.683 331.193 219.293C334.561 215.903 339.129 213.998 343.892 213.998H344.717V193.69H318.28Z" fill="#F0F0F0"/>
<rect width="42.4591" height="42.7069" transform="matrix(0.969919 -0.243427 0.240425 0.970668 49.3261 10.9852)" fill="#F0F0F0"/>
<rect x="374.737" y="451.133" width="86.9556" height="17.7145" fill="#222F65"/>
<rect x="351.963" y="361.519" width="127.328" height="16.6725" fill="#F0F0F0"/>
<rect y="545.958" width="542.437" height="1.04203" fill="#3F3D56"/>
<path fill-rule="evenodd" clip-rule="evenodd" d="M342.683 547H500.993C511.299 546.988 519.651 538.585 519.663 528.216V232.334C519.651 221.965 511.299 213.562 500.993 213.55H342.683C332.377 213.562 324.025 221.965 324.013 232.334V528.216C324.025 538.585 332.377 546.988 342.683 547ZM325.405 232.334C325.416 222.739 333.145 214.962 342.683 214.951H500.993C510.531 214.962 518.26 222.739 518.27 232.334V528.216C518.26 537.812 510.531 545.588 500.993 545.599H342.683C333.145 545.588 325.416 537.812 325.405 528.216V232.334Z" fill="#3F3D56"/>
<path fill-rule="evenodd" clip-rule="evenodd" d="M399.581 223.971C399.581 226.273 401.435 228.139 403.722 228.139C406.008 228.136 407.86 226.272 407.863 223.971C407.863 221.669 406.009 219.802 403.722 219.802C401.435 219.802 399.581 221.669 399.581 223.971ZM400.962 223.971C400.962 222.436 402.198 221.192 403.722 221.192C405.246 221.193 406.481 222.437 406.483 223.971C406.483 225.505 405.247 226.749 403.722 226.749C402.198 226.749 400.962 225.505 400.962 223.971Z" fill="#3F3D56"/>
<rect x="414.074" y="222.929" width="31.0556" height="1.04203" fill="#3F3D56"/>
<path d="M508.276 233.349V289.619C477.404 289.617 452.377 264.425 452.376 233.349H508.276Z" fill="#222F65"/>
<path fill-rule="evenodd" clip-rule="evenodd" d="M336.435 528.243H508.276V233.349H336.435V528.243ZM506.884 526.843H337.827V234.75H506.884V526.843Z" fill="#3F3D56"/>
<path opacity="0.1" d="M467.386 286.492C477.963 286.492 486.537 277.862 486.537 267.215C486.537 256.568 477.963 247.937 467.386 247.937C456.809 247.937 448.235 256.568 448.235 267.215C448.235 277.862 456.809 286.492 467.386 286.492Z" fill="black"/>
<path d="M464.281 288.576C474.857 288.576 483.431 279.946 483.431 269.299C483.431 258.652 474.857 250.021 464.281 250.021C453.704 250.021 445.13 258.652 445.13 269.299C445.13 279.946 453.704 288.576 464.281 288.576Z" fill="#222F65"/>
<rect x="343.681" y="244.811" width="26.9148" height="9.37827" fill="#3F3D56"/>
<rect x="358.174" y="338.594" width="26.9148" height="9.37827" fill="#3F3D56"/>
<path fill-rule="evenodd" clip-rule="evenodd" d="M359.209 375.065H487.572V357.35H359.209V375.065ZM486.177 373.702H360.605V358.713H486.177V373.702Z" fill="#3F3D56"/>
<rect x="351.963" y="414.662" width="127.328" height="16.6725" fill="#F0F0F0"/>
<rect x="358.174" y="390.695" width="26.9148" height="9.37827" fill="#3F3D56"/>
<path fill-rule="evenodd" clip-rule="evenodd" d="M359.209 428.209H487.572V410.494H359.209V428.209ZM486.177 426.846H360.605V411.857H486.177V426.846Z" fill="#3F3D56"/>
<path fill-rule="evenodd" clip-rule="evenodd" d="M378.878 464.68H466.869V445.923H378.878V464.68ZM465.472 463.34H380.274V447.263H465.472V463.34Z" fill="#3F3D56"/>
<path d="M482.396 368.292C482.396 371.148 480.616 373.698 477.945 374.665C475.275 375.632 472.29 374.808 470.482 372.606L470.475 372.599C468.715 370.449 468.442 367.433 469.788 364.998C471.134 362.563 473.824 361.207 476.567 361.58C479.309 361.953 481.545 363.979 482.201 366.687C482.201 366.688 482.202 366.69 482.203 366.691C482.204 366.693 482.206 366.693 482.208 366.693C482.332 367.217 482.395 367.753 482.396 368.292Z" fill="#222F65"/>
<path opacity="0.1" d="M482.396 367.901C482.396 370.923 480.569 373.619 477.83 374.642C475.091 375.664 472.029 374.793 470.174 372.464L470.167 372.457C470.04 371.903 469.975 371.336 469.974 370.767C469.974 367.745 471.801 365.048 474.54 364.026C477.279 363.003 480.342 363.874 482.196 366.203C482.196 366.205 482.197 366.207 482.198 366.208C482.199 366.21 482.201 366.211 482.203 366.211C482.331 366.764 482.395 367.332 482.396 367.901Z" fill="black"/>
<path d="M478.773 378.191C482.489 378.191 485.502 375.159 485.502 371.418C485.502 367.677 482.489 364.645 478.773 364.645C475.057 364.645 472.044 367.677 472.044 371.418C472.044 375.159 475.057 378.191 478.773 378.191Z" fill="#222F65"/>
<path d="M482.396 420.393C482.396 423.25 480.616 425.8 477.945 426.766C475.275 427.733 472.29 426.91 470.482 424.708L470.475 424.701C468.715 422.551 468.442 419.534 469.788 417.1C471.134 414.665 473.824 413.308 476.567 413.681C479.309 414.054 481.545 416.081 482.201 418.788C482.201 418.79 482.202 418.792 482.203 418.793C482.204 418.794 482.206 418.795 482.208 418.795C482.332 419.318 482.395 419.855 482.396 420.393Z" fill="#222F65"/>
<path opacity="0.1" d="M482.396 421.045C482.396 424.066 480.569 426.763 477.83 427.785C475.091 428.808 472.029 427.937 470.174 425.608L470.167 425.601C470.04 425.047 469.975 424.479 469.974 423.91C469.974 420.889 471.801 418.192 474.54 417.169C477.279 416.147 480.342 417.018 482.196 419.347C482.196 419.349 482.197 419.351 482.198 419.352C482.199 419.353 482.201 419.354 482.203 419.354C482.331 419.908 482.395 420.475 482.396 421.045Z" fill="black"/>
<path d="M478.773 431.335C482.489 431.335 485.502 428.302 485.502 424.561C485.502 420.821 482.489 417.788 478.773 417.788C475.057 417.788 472.044 420.821 472.044 424.561C472.044 428.302 475.057 431.335 478.773 431.335Z" fill="#222F65"/>
<rect x="326.083" y="147.902" width="36.2315" height="36.4711" fill="#F0F0F0"/>
<path fill-rule="evenodd" clip-rule="evenodd" d="M458.587 165.617C458.587 170.221 462.295 173.953 466.869 173.953C471.44 173.948 475.145 170.219 475.15 165.617C475.15 161.013 471.442 157.281 466.869 157.281C462.295 157.281 458.587 161.013 458.587 165.617ZM459.967 165.617C459.967 161.78 463.057 158.67 466.869 158.67C470.678 158.674 473.765 161.782 473.77 165.617C473.77 169.454 470.68 172.564 466.869 172.564C463.057 172.564 459.967 169.454 459.967 165.617Z" fill="#3F3D56"/>
<path fill-rule="evenodd" clip-rule="evenodd" d="M266.043 291.703H283.641V273.988H266.043V291.703ZM282.287 290.34H267.396V275.351H282.287V290.34Z" fill="#3F3D56"/>
<path fill-rule="evenodd" clip-rule="evenodd" d="M541.402 428.209H559V410.494H541.402V428.209ZM557.646 426.846H542.756V411.857H557.646V426.846Z" fill="#3F3D56"/>
<path d="M201.861 306.191L204.964 307.885L215.523 313.654L232.57 322.963L242.504 304.281C244.394 300.735 244.815 296.574 243.674 292.714C242.533 288.853 239.924 285.612 236.423 283.703C228.822 279.542 219.439 280.833 213.206 286.896L213.201 286.901C211.707 288.357 210.445 290.039 209.463 291.889L201.861 306.191Z" fill="#2F2E41"/>
<path d="M248.444 493.94L246.446 517.782L238.949 518.865L233.952 491.772L248.444 493.94Z" fill="#FFB8B8"/>
<path d="M236.386 519.509C236.386 519.509 246.299 514.162 248.386 518.44C248.386 518.44 246.821 531.274 253.081 532.878C259.342 534.482 261.95 545.712 253.081 546.782C244.212 547.851 238.473 544.643 235.343 544.643C232.213 544.643 235.343 533.413 235.343 533.413L236.386 519.509Z" fill="#2F2E41"/>
<path d="M185.298 493.94L187.297 517.782L194.793 518.865L199.791 491.772L185.298 493.94Z" fill="#FFB8B8"/>
<path d="M198.391 519.509C198.391 519.509 188.479 514.162 186.392 518.44C186.392 518.44 187.957 531.274 181.697 532.878C175.436 534.482 172.828 545.712 181.697 546.782C190.566 547.851 196.304 544.643 199.435 544.643C202.565 544.643 199.435 533.413 199.435 533.413L198.391 519.509Z" fill="#2F2E41"/>
<path d="M227.223 310.459C234.941 310.459 241.198 304.161 241.198 296.392C241.198 288.622 234.941 282.324 227.223 282.324C219.505 282.324 213.248 288.622 213.248 296.392C213.248 304.161 219.505 310.459 227.223 310.459Z" fill="#FFB8B8"/>
<path d="M185.298 322.755L196.162 340.151L209.095 339.097L230.305 340.678C230.305 340.678 232.307 336.598 233.942 332.628C234.837 330.646 235.525 328.574 235.996 326.445C236.513 322.755 229.271 319.065 229.271 319.065C229.271 319.065 228.986 319.012 228.51 318.896C227.879 318.743 226.906 318.49 225.841 318.121C223.435 317.289 220.543 315.876 219.959 313.794C218.924 310.104 226.684 304.832 226.684 304.832L217.372 295.871C217.372 295.871 209.1 307.579 199.054 310.246C198.471 310.403 197.881 310.526 197.284 310.615C197.253 310.62 197.228 310.625 197.197 310.631C186.333 312.212 185.298 322.755 185.298 322.755Z" fill="#FFB8B8"/>
<path d="M190.748 318.795L184.756 323.524C184.756 323.524 179.854 346.118 181.488 352.424C183.122 358.729 180.943 364.509 180.943 365.56C180.943 366.611 176.041 406.019 176.041 406.019C176.041 406.019 166.237 427.036 176.586 424.935C186.935 422.833 183.122 401.815 183.122 401.815L195.65 365.034V334.033L190.748 318.795Z" fill="#FFB8B8"/>
<path d="M231.929 322.964L236.164 326.089L238.282 369.85L254.164 407.359C254.164 407.359 265.811 425.593 258.399 426.114C250.987 426.635 246.223 407.359 246.223 407.359L231.929 371.413L229.811 336.509L231.929 322.964Z" fill="#FFB8B8"/>
<path d="M205.727 325.047C205.727 325.047 216.169 332.423 232.875 329.789C232.875 329.789 237.574 339.271 234.964 344.539C232.353 349.807 238.096 362.45 239.14 364.03C240.185 365.611 252.193 398.272 256.369 433.567C260.546 468.862 272.032 493.095 262.112 496.255C252.193 499.416 231.831 503.104 229.743 499.943C227.655 496.782 224.522 418.29 224.522 418.29L218.779 448.317C218.779 448.317 226.61 499.416 220.867 500.47C215.124 501.523 179.1 498.363 180.144 492.041C181.189 485.72 191.63 452.532 191.63 452.532C191.63 452.532 191.108 386.156 201.55 373.512C201.55 373.512 205.727 366.664 199.984 357.709C194.241 348.753 194.763 334.53 194.763 334.53C194.763 334.53 198.94 334.53 205.727 325.047Z" fill="#2F2E41"/>
<path d="M196.685 310.826L205.05 330.258L207.037 329.208L198.385 310.459L196.685 310.826Z" fill="#2F2E41"/>
<path d="M225.67 318.795L232.349 333.384L233.952 333.242L233.407 330.759L228.399 319.567C227.754 319.415 226.76 319.163 225.67 318.795Z" fill="#2F2E41"/>
<path d="M204.321 307.357C205.346 310.761 208.245 313.198 211.679 313.543C215.113 313.889 218.413 312.074 220.054 308.939C213.464 300.04 219.116 294.45 229.821 290.221C231.47 287.059 231.106 283.182 228.899 280.407C222.923 279.618 216.921 281.658 212.568 285.96L212.562 285.965L204.957 300.535C203.863 302.628 203.633 305.088 204.321 307.357Z" fill="#2F2E41"/>
<path d="M219.977 301.081C220.834 301.081 221.53 299.681 221.53 297.955C221.53 296.228 220.834 294.829 219.977 294.829C219.119 294.829 218.424 296.228 218.424 297.955C218.424 299.681 219.119 301.081 219.977 301.081Z" fill="#FFB8B8"/>
<path d="M225.67 292.871L241.417 300.039L244.304 293.639C243.806 291.3 242.765 289.113 241.265 287.256L230.427 282.324L225.67 292.871Z" fill="#2F2E41"/>
<path d="M263.455 433.419C267.171 433.419 270.183 430.386 270.183 426.646C270.183 422.905 267.171 419.872 263.455 419.872C259.738 419.872 256.726 422.905 256.726 426.646C256.726 430.386 259.738 433.419 263.455 433.419Z" fill="#222F65"/>
<path d="M39.8546 475.1C42.4273 475.1 44.513 473 44.513 470.411C44.513 467.821 42.4273 465.722 39.8546 465.722C37.2819 465.722 35.1963 467.821 35.1963 470.411C35.1963 473 37.2819 475.1 39.8546 475.1Z" fill="#FF6584"/>
<rect x="61.0759" y="494.898" width="1.03519" height="52.1015" fill="#3F3D56"/>
<path d="M62.1111 501.151C66.1131 501.151 69.3574 497.885 69.3574 493.856C69.3574 489.828 66.1131 486.562 62.1111 486.562C58.1091 486.562 54.8648 489.828 54.8648 493.856C54.8648 497.885 58.1091 501.151 62.1111 501.151Z" fill="#3F3D56"/>
<path d="M61.0759 526.159C61.0759 526.159 60.0648 503.993 39.337 506.569L61.0759 526.159Z" fill="#3F3D56"/>
</svg>
